<?xml version="1.0" standalone="no"?>
<!DOCTYPE svg PUBLIC "-//W3C//DTD SVG 20010904//EN"
 "http://www.w3.org/TR/2001/REC-SVG-20010904/DTD/svg10.dtd">
<svg version="1.0" xmlns="http://www.w3.org/2000/svg"
 width="480.000000pt" height="480.000000pt" viewBox="0 0 480.000000 480.000000"
 preserveAspectRatio="xMidYMid meet">
<metadata>
Created by potrace 1.14, written by Peter Selinger 2001-2017
</metadata>
<g transform="translate(0.000000,480.000000) scale(0.100000,-0.100000)"
fill="#000000" stroke="none">
<path d="M0 4631 c0 -165 1 -169 26 -207 15 -21 30 -40 35 -42 5 -2 9 -10 9
-18 0 -8 4 -14 8 -14 5 0 15 -12 23 -27 8 -16 22 -37 31 -47 10 -11 18 -25 18
-32 0 -6 7 -17 16 -25 24 -19 77 -129 62 -129 -6 0 -2 -9 10 -20 23 -21 30
-70 11 -70 -5 0 -8 -4 -5 -8 3 -5 -2 -18 -12 -28 -17 -20 -19 -26 -25 -64 -2
-11 -6 -22 -9 -25 -3 -3 -2 -21 2 -40 4 -19 5 -37 2 -40 -3 -3 4 -14 16 -25
13 -12 23 -16 27 -9 11 17 36 -10 27 -30 -5 -9 -7 -47 -6 -86 4 -88 5 -95 17
-95 6 0 8 -3 4 -6 -3 -3 0 -25 7 -49 15 -47 10 -64 -16 -59 -13 1 -18 -4 -18
-19 0 -26 -16 -54 -26 -45 -9 9 -38 -21 -41 -43 -2 -11 6 -20 18 -24 15 -5 18
-10 10 -15 -7 -4 -11 -11 -10 -16 1 -5 0 -11 -1 -14 -6 -16 -14 -70 -14 -104
l-1 -39 45 -3 c25 -2 46 -8 48 -13 2 -6 11 -7 19 -4 12 5 15 2 10 -11 -7 -17
-36 -128 -42 -158 -4 -19 -17 -198 -18 -243 -1 -32 13 -200 18 -225 2 -8 6
-25 9 -36 8 -38 73 -171 107 -220 79 -116 192 -214 363 -317 44 -27 51 -34 40
-45 -8 -7 -14 -10 -14 -6 0 4 -15 -13 -33 -37 -33 -43 -77 -129 -77 -149 0 -5
-4 -10 -8 -10 -5 0 -13 -16 -19 -35 -6 -19 -7 -35 -3 -35 5 0 2 -12 -6 -27 -7
-16 -14 -34 -14 -40 0 -7 -6 -13 -12 -13 -9 0 -8 -4 2 -10 8 -5 10 -10 4 -10
-14 0 -33 -85 -23 -101 4 -7 27 -15 51 -16 64 -5 68 -6 68 -13 0 -3 10 -7 23
-8 56 -4 96 -10 106 -16 6 -4 11 -1 11 6 0 9 3 9 8 2 4 -6 50 -16 102 -23 52
-7 100 -14 105 -16 6 -1 12 8 13 22 1 13 6 32 11 41 4 9 7 27 5 39 -2 13 1 23
7 23 6 0 8 9 4 20 -4 11 -2 20 4 20 6 0 10 3 10 7 -9 55 17 55 27 1 4 -24 8
-45 9 -48 1 -3 5 -27 9 -55 5 -27 14 -65 22 -83 13 -32 13 -32 -11 -28 -14 3
-25 0 -25 -5 0 -5 -15 -9 -34 -9 -18 0 -38 -6 -44 -13 -9 -11 -9 -26 2 -92 1
-5 5 -16 10 -23 4 -7 5 -16 2 -19 -3 -3 -1 -12 5 -19 11 -13 21 -59 23 -106 0
-14 4 -24 7 -22 8 5 23 -66 15 -73 -2 -3 3 -13 12 -24 9 -11 17 -25 18 -32 0
-6 2 -21 2 -33 3 -29 40 -44 71 -28 13 7 32 11 42 9 11 -2 19 0 19 5 0 4 8 7
18 6 9 -2 19 0 22 4 3 4 33 10 68 14 62 7 63 6 110 -32 26 -21 58 -43 72 -50
84 -39 243 -102 257 -102 21 0 55 -20 36 -20 -7 0 -12 -6 -10 -13 1 -6 -4 -11
-10 -10 -7 2 -13 -6 -13 -17 0 -10 -8 -24 -17 -29 -10 -6 -13 -11 -8 -11 6 0
3 -5 -5 -10 -11 -7 -12 -12 -4 -17 7 -5 11 -20 9 -35 -2 -15 3 -32 11 -39 8
-6 14 -20 14 -30 0 -11 5 -19 11 -19 5 0 7 -4 4 -10 -3 -5 -2 -10 3 -10 5 0
17 -16 28 -35 10 -19 27 -38 36 -41 10 -3 16 -9 13 -14 -6 -10 21 -21 30 -12
4 4 10 7 13 7 12 0 50 43 57 64 3 12 10 21 15 21 5 0 23 13 40 30 17 16 33 30
35 30 9 0 -5 -185 -20 -270 -8 -47 -15 -91 -15 -97 0 -10 33 -13 134 -13 l134
0 8 43 c4 23 8 44 9 47 1 3 5 28 9 55 10 68 20 84 35 56 6 -11 15 -20 19 -20
4 1 9 0 12 -1 32 -12 100 -18 100 -8 0 4 7 8 15 8 8 0 14 3 13 8 -2 4 6 33 17
65 19 58 19 59 0 73 -12 9 -21 10 -25 4 -10 -16 -28 11 -24 35 2 11 5 30 6 43
3 26 2 26 23 6 13 -13 13 -19 3 -33 -12 -14 -11 -15 4 -2 10 7 15 18 11 25 -3
6 3 3 14 -7 11 -9 23 -14 26 -10 4 3 7 1 7 -5 0 -24 30 1 47 39 9 21 20 39 25
39 4 0 8 6 8 14 0 7 22 57 50 110 52 101 60 133 35 142 -8 4 -13 10 -10 14 3
4 -8 10 -24 13 -16 3 -36 13 -44 22 -9 8 -20 15 -26 15 -5 0 -13 5 -17 12 -5
7 -2 8 7 3 11 -6 12 -5 2 6 -15 15 -17 43 -3 34 5 -3 7 0 4 8 -5 14 36 91 80
151 26 34 41 90 52 184 3 34 9 62 13 62 3 0 24 -19 46 -43 62 -67 108 -98 275
-184 194 -101 250 -116 423 -116 167 -1 264 10 302 33 17 10 59 34 95 52 36
19 86 47 112 62 40 23 48 25 48 11 0 -60 142 -87 153 -29 2 13 2 26 -1 29 -3
3 -7 20 -8 38 -3 56 -4 58 -21 56 -36 -3 -36 2 -2 39 74 78 153 232 174 340 5
24 10 30 19 23 18 -15 156 -4 187 15 8 4 19 9 26 10 7 1 26 12 43 24 16 12 30
19 30 16 0 -3 8 2 18 11 10 10 18 29 17 43 -2 33 -37 110 -50 110 -5 0 -3 5 5
10 13 8 12 10 -3 10 -11 0 -22 12 -28 29 -6 16 -17 32 -25 35 -8 3 -14 19 -14
40 0 44 9 68 23 59 6 -4 8 0 5 9 -4 8 -2 21 2 29 14 22 -8 38 -48 33 -22 -3
-39 0 -44 8 -6 10 -8 8 -8 -4 0 -11 -5 -15 -15 -12 -9 4 -15 0 -15 -10 0 -9
-4 -16 -10 -16 -5 0 -13 -12 -16 -28 -7 -29 -38 -65 -48 -55 -3 4 -6 2 -6 -4
0 -6 -9 -13 -19 -16 -16 -4 -22 5 -35 52 -66 235 -265 441 -473 491 -29 6 -53
15 -53 18 0 4 28 20 63 35 34 15 82 45 107 67 47 42 70 50 70 25 0 -7 8 -19
18 -24 9 -6 13 -11 9 -11 -5 0 -2 -6 5 -13 7 -8 24 -28 37 -46 28 -36 59 -38
78 -6 7 11 12 14 13 7 0 -7 5 -10 10 -7 6 4 8 10 5 14 -2 5 4 19 15 31 11 13
20 19 20 14 1 -5 9 1 19 13 10 12 21 19 25 16 3 -4 6 0 6 8 0 9 13 25 29 37
26 19 40 62 20 62 -4 0 -16 16 -28 36 -12 19 -26 32 -31 29 -6 -3 -10 1 -10 9
0 8 -9 21 -21 29 -29 21 -26 46 13 104 20 28 55 101 79 162 l44 111 41 0 c47
0 59 15 44 55 -5 14 -9 29 -8 33 5 19 -15 53 -28 48 -12 -4 -13 12 -10 97 2
63 -2 118 -10 145 -7 23 -12 45 -12 47 -1 23 -18 77 -35 110 -44 87 -151 245
-177 262 -15 10 -57 45 -92 78 -55 51 -81 66 -174 102 -60 23 -127 45 -149 48
-33 5 -75 25 -51 25 4 0 0 10 -8 22 -16 22 -46 34 -46 17 0 -5 -12 -9 -26 -9
-14 0 -23 -4 -20 -8 2 -4 -4 -8 -15 -8 -10 0 -22 8 -25 18 -3 10 -10 16 -15
13 -5 -3 -6 1 -3 9 3 9 1 16 -5 16 -6 0 -11 6 -11 13 0 6 -5 29 -11 50 -9 33
-13 37 -37 32 -15 -2 -28 -9 -30 -15 -2 -5 -8 -8 -13 -4 -5 3 -9 0 -9 -6 0 -6
-4 -9 -9 -5 -5 3 -12 -4 -16 -15 -3 -11 -11 -20 -16 -20 -6 0 -7 -5 -3 -11 3
-6 1 -15 -6 -19 -10 -6 -7 -20 13 -61 28 -54 28 -59 5 -63 -16 -3 -62 -22
-100 -39 -40 -19 -189 -115 -265 -170 -36 -27 -71 -46 -78 -43 -7 2 -16 20
-20 38 -10 50 -43 136 -70 182 -13 22 -33 66 -45 96 -63 160 -204 328 -351
417 -87 54 -158 88 -171 85 -5 -1 -8 2 -8 7 0 12 28 34 37 28 4 -2 16 5 26 15
18 19 16 19 -82 17 -72 -1 -101 -5 -105 -15 -4 -9 -28 -13 -88 -12 -93 2 -301
-17 -319 -28 -4 -2 -12 3 -18 10 -14 16 -4 25 22 21 9 -2 17 3 17 11 0 12 -18
15 -99 13 -87 -1 -99 -3 -94 -18 10 -28 14 -32 26 -24 20 12 107 11 117 -2 7
-9 -7 -16 -51 -29 -33 -9 -90 -30 -125 -46 l-64 -29 0 75 0 74 -174 0 c-145 0
-175 -2 -180 -15 -3 -8 -1 -15 4 -15 4 0 8 -15 8 -32 -1 -52 22 -94 61 -114
20 -10 40 -17 45 -15 5 1 12 -3 16 -8 3 -6 34 -13 69 -15 34 -2 64 -6 67 -8 2
-3 -16 -23 -41 -46 -67 -61 -131 -213 -136 -327 -3 -45 -14 -59 -25 -30 -4 8
-12 15 -20 15 -8 0 -13 3 -12 8 2 12 -14 44 -34 64 -16 16 -46 76 -44 89 1 3
-7 14 -17 24 -10 9 -16 24 -13 31 3 8 2 14 -2 14 -9 0 -34 62 -39 95 -11 69
-17 151 -13 170 1 6 2 25 2 43 0 18 3 30 7 28 4 -3 7 5 6 17 l-2 22 -581 3
-582 2 0 -169z m2137 -4129 c1 -65 -1 -80 -12 -76 -8 3 -17 14 -20 24 -3 10
-12 21 -20 24 -8 3 -15 12 -15 21 0 8 -6 15 -12 15 -14 0 -59 60 -53 70 2 3
32 5 67 5 l63 -2 2 -81z m351 -17 l22 -25 -35 -36 c-19 -19 -35 -30 -35 -25 0
14 21 111 24 111 1 0 12 -11 24 -25z m62 -45 c0 -5 -7 -10 -15 -10 -8 0 -15 5
-15 10 0 6 7 10 15 10 8 0 15 -4 15 -10z"/>
<path d="M2550 4786 c0 -23 26 -77 33 -69 4 3 7 1 7 -6 0 -7 5 -9 10 -6 6 3
10 2 10 -3 0 -5 7 -9 15 -10 8 -1 22 -3 30 -4 8 -1 15 -5 15 -10 0 -4 14 -8
30 -8 17 0 30 -4 30 -8 0 -8 15 -8 64 -3 5 1 6 4 3 8 -4 3 -2 12 4 20 6 7 8
13 4 13 -4 0 -2 7 5 15 6 8 9 19 6 24 -4 5 -2 12 3 15 5 4 8 14 7 24 -3 15
-18 17 -139 20 -113 2 -137 0 -137 -12z"/>
<path d="M3119 4787 c-9 -6 -14 -18 -12 -24 3 -7 -2 -13 -11 -13 -9 0 -15 -3
-14 -7 0 -5 -2 -15 -5 -23 -13 -31 -25 -101 -20 -120 5 -18 38 -37 56 -32 4 1
7 -2 7 -6 0 -4 17 -8 38 -8 40 -1 147 -18 147 -24 0 -1 22 -2 48 -3 26 -1 51
-6 55 -12 9 -13 48 -14 50 -1 9 74 16 104 28 117 8 8 14 22 14 30 0 8 3 10 8
4 4 -5 43 -11 87 -13 78 -3 140 -8 140 -12 0 -10 38 -5 42 6 3 8 9 12 13 9 10
-6 -8 76 -20 91 -6 6 -7 14 -3 17 3 4 1 7 -5 7 -7 0 -11 6 -10 13 4 18 -610
22 -633 4z"/>
<path d="M4219 4769 c-16 -18 -28 -34 -25 -36 2 -2 -7 -16 -20 -30 -13 -14
-24 -34 -24 -44 0 -10 -5 -21 -10 -24 -6 -4 -8 -11 -5 -16 4 -5 2 -9 -2 -9 -5
0 -19 -19 -31 -42 -38 -72 -49 -89 -55 -86 -3 2 -9 -1 -14 -6 -5 -5 -3 -6 5
-2 8 5 12 -2 12 -23 0 -17 5 -32 10 -32 6 -1 15 -2 20 -3 6 0 21 -14 35 -30
14 -16 25 -26 25 -22 0 4 7 1 15 -8 8 -8 15 -20 15 -27 0 -7 3 -10 6 -6 13 13
71 -63 65 -86 -1 -5 3 -6 8 -3 11 7 25 -22 22 -46 -1 -10 3 -18 8 -18 6 0 10
-3 9 -7 -2 -5 2 -10 7 -13 6 -3 18 11 27 30 9 19 22 41 28 48 6 6 8 12 5 12
-4 0 3 14 15 30 12 17 18 30 13 30 -4 0 1 7 11 15 11 8 16 15 12 15 -5 0 -3 7
4 15 7 8 9 15 6 15 -4 0 -1 10 6 23 7 12 13 25 14 30 1 4 2 8 3 10 7 8 5 97
-2 97 -5 0 -6 4 -3 8 3 5 -1 21 -9 36 -10 18 -10 25 -2 20 7 -4 2 4 -10 18
-13 13 -23 29 -23 36 0 6 -9 16 -20 22 -11 6 -18 15 -15 21 4 5 1 9 -4 9 -6 0
-11 7 -11 15 0 9 -10 19 -22 24 -13 5 -29 18 -37 29 -8 12 -19 18 -25 15 -5
-4 -7 1 -3 10 10 25 -2 21 -34 -14z"/>
<path d="M4570 4795 c0 -6 27 -40 68 -82 17 -19 32 -38 32 -41 0 -4 9 -13 20
-20 11 -7 20 -19 20 -28 0 -8 5 -12 10 -9 6 3 10 2 10 -2 0 -5 13 -23 29 -40
16 -18 31 -38 34 -45 3 -7 6 51 6 130 l1 142 -115 0 c-63 0 -115 -2 -115 -5z"/>
<path d="M4755 4100 c3 -5 8 -10 11 -10 2 0 4 5 4 10 0 6 -5 10 -11 10 -5 0
-7 -4 -4 -10z"/>
<path d="M4777 4087 c-2 -6 2 -18 9 -25 12 -11 14 -9 14 7 0 23 -16 36 -23 18z"/>
<path d="M120 4000 c0 -5 -8 -10 -18 -10 -11 0 -26 -8 -35 -18 -18 -20 -22
-42 -8 -42 5 0 15 -14 24 -32 14 -29 57 -49 57 -26 0 5 11 20 25 34 20 20 23
29 15 39 -7 8 -9 19 -6 24 4 6 -7 17 -24 26 -17 9 -30 11 -30 5z"/>
<path d="M111 2561 c-11 -11 -22 -17 -25 -13 -3 3 -6 -2 -6 -11 0 -10 -6 -14
-14 -11 -7 3 -20 -1 -27 -9 -8 -7 -20 -12 -27 -9 -17 5 -18 -323 0 -334 15 -9
108 -12 114 -3 2 4 15 6 29 5 13 -2 22 0 20 4 -4 6 29 20 56 24 3 1 13 9 23
19 10 9 21 15 25 13 4 -3 13 9 20 25 11 25 10 32 -9 59 -12 16 -19 30 -15 30
3 0 -2 14 -12 30 -9 17 -21 30 -26 30 -4 0 -6 4 -2 9 3 5 -2 16 -11 25 -8 9
-12 21 -8 27 4 7 3 9 -4 5 -6 -3 -13 6 -17 24 -4 16 -11 30 -16 30 -5 0 -9 6
-9 13 0 7 -9 18 -20 25 -17 10 -23 9 -39 -7z"/>
<path d="M298 850 c-14 -14 -37 -35 -50 -47 -60 -56 -97 -103 -128 -162 -43
-84 -44 -132 -2 -193 17 -25 28 -48 25 -52 -4 -3 -1 -6 5 -6 11 0 28 -38 24
-53 -1 -5 2 -6 7 -3 5 3 15 -9 22 -27 7 -17 16 -34 19 -37 12 -9 65 -95 68
-110 2 -8 7 -17 10 -20 17 -13 56 -89 53 -103 -1 -5 3 -6 8 -3 5 4 12 -3 16
-14 6 -20 14 -20 536 -20 517 0 529 0 529 19 0 11 -4 23 -10 26 -5 3 -10 16
-10 28 0 12 -7 35 -15 51 -8 15 -15 33 -15 38 0 6 -6 24 -14 41 -19 44 -38 95
-39 104 0 4 -11 29 -24 54 -23 47 -32 129 -13 129 6 0 10 11 10 24 0 21 -4 24
-26 20 -16 -3 -23 -1 -19 6 3 5 2 10 -4 10 -5 0 -12 -4 -15 -9 -4 -5 -31 15
-61 44 -60 59 -166 106 -240 107 -31 1 -100 -15 -103 -23 -2 -5 -10 -9 -17 -9
-7 0 -46 -35 -87 -77 -40 -42 -90 -95 -111 -117 l-39 -40 -19 41 c-10 23 -24
45 -29 48 -14 9 -12 42 3 49 6 3 1 3 -12 0 -17 -4 -22 -2 -19 7 3 8 -4 22 -14
33 -10 11 -18 26 -18 33 0 7 -4 13 -9 13 -5 0 -12 14 -16 30 -4 17 -11 30 -17
30 -6 0 -8 3 -5 6 3 4 -2 18 -13 32 -11 13 -17 29 -13 36 3 6 2 8 -2 3 -9 -8
-46 63 -39 74 2 4 -6 8 -19 11 -14 2 -32 -6 -49 -22z"/>
<path d="M4154 636 c-6 -6 -9 -17 -6 -24 2 -6 -2 -12 -9 -12 -7 0 -10 -3 -6
-6 3 -4 0 -19 -9 -35 -8 -16 -11 -29 -7 -29 4 0 2 -5 -5 -12 -7 -7 -12 -18
-12 -24 0 -7 -5 -25 -12 -41 -6 -15 -13 -37 -15 -47 -2 -11 -7 -24 -12 -30 -9
-12 -23 -64 -19 -70 2 -2 -6 -14 -17 -27 -11 -12 -15 -19 -8 -15 8 4 7 -2 -2
-21 -8 -15 -15 -35 -15 -44 0 -9 -7 -20 -16 -23 -8 -3 -12 -10 -9 -16 3 -5 1
-10 -4 -10 -6 0 -10 -6 -9 -13 2 -6 -4 -10 -12 -8 -8 2 -21 4 -27 4 -7 0 -13
4 -13 9 0 4 -9 8 -20 8 -18 0 -27 23 -17 46 3 8 -44 28 -60 25 -7 -1 -13 4
-13 11 0 9 -3 9 -10 -2 -5 -8 -10 -11 -10 -7 0 4 -17 -3 -37 -17 -20 -14 -41
-22 -47 -19 -10 6 -35 6 -121 -2 -129 -12 -284 -79 -375 -162 l-25 -23 813 0
812 0 0 70 c0 39 -3 70 -6 70 -4 0 -17 -11 -29 -24 -28 -30 -38 -29 -103 13
-28 18 -57 34 -64 35 -17 3 -62 27 -68 37 -3 4 -12 9 -20 11 -8 2 -20 8 -26
13 -6 6 -22 17 -34 25 -13 8 -32 24 -44 35 -11 11 -33 26 -48 34 -16 8 -28 21
-28 29 0 9 -3 12 -7 9 -9 -9 -34 13 -27 24 3 5 -2 6 -10 3 -14 -5 -43 31 -38
48 1 4 -5 5 -13 2 -9 -4 -15 0 -15 9 0 9 -8 20 -17 26 -10 5 -15 13 -11 17 5
4 3 13 -3 20 -5 7 -12 41 -15 75 -2 35 -6 64 -7 65 -1 1 -7 -3 -13 -10z"/>
<path d="M565 520 c3 -5 8 -10 11 -10 2 0 4 5 4 10 0 6 -5 10 -11 10 -5 0 -7
-4 -4 -10z"/>
<path d="M4742 395 c-9 -10 -9 -15 -1 -15 6 0 9 -7 5 -15 -3 -9 0 -15 7 -15 8
0 21 -15 30 -32 l16 -33 -2 60 c-2 52 -5 60 -22 62 -11 2 -26 -4 -33 -12z"/>
<path d="M3006 323 c-4 -5 -11 -8 -14 -9 -20 -2 -61 -28 -56 -35 3 -5 1 -9 -4
-9 -5 0 -12 -9 -15 -21 -3 -12 -9 -19 -14 -16 -4 3 -9 -5 -9 -16 -1 -12 -4
-42 -6 -67 -3 -25 -3 -51 0 -58 8 -22 52 -34 138 -36 44 -2 86 -6 92 -10 7 -4
12 -2 12 4 0 6 4 9 9 6 5 -3 9 17 9 45 1 29 6 57 11 62 8 8 11 8 11 1 0 -6 7
-11 15 -11 8 0 12 4 9 9 -3 4 4 8 16 8 14 0 19 -4 14 -12 -6 -10 -5 -10 7 -1
9 7 29 11 47 9 19 -3 38 2 50 12 19 17 19 18 1 52 -11 19 -19 40 -19 47 0 7
-4 13 -10 13 -5 0 -10 7 -10 15 0 18 6 17 -103 19 -52 0 -87 -3 -87 -9 0 -5
-4 -5 -8 2 -9 14 -44 12 -54 -2 -5 -6 -8 -5 -8 3 0 13 -13 16 -24 5z"/>
</g>
</svg>
